<svg xmlns="http://www.w3.org/2000/svg" width="21.036" height="24.861" viewBox="0 0 21.036 24.861">
  <path id="Caminho_80" data-name="Caminho 80" d="M25.846,6.75h-2.39V8.184a.48.48,0,0,1-.478.478h-.956a.48.48,0,0,1-.478-.478V6.75H10.068V8.184a.48.48,0,0,1-.478.478H8.634a.48.48,0,0,1-.478-.478V6.75H5.765a2.4,2.4,0,0,0-2.39,2.39V25.4a2.4,2.4,0,0,0,2.39,2.39h20.08a2.4,2.4,0,0,0,2.39-2.39V9.14A2.4,2.4,0,0,0,25.846,6.75Zm.478,17.929a1.2,1.2,0,0,1-1.2,1.2H6.483a1.2,1.2,0,0,1-1.2-1.2V13.921a.48.48,0,0,1,.478-.478h20.08a.48.48,0,0,1,.478.478Z" transform="translate(-6.75 28.236) rotate(-90)" fill="#464646"/>
</svg>
